<mxfile host="app.diagrams.net" modified="2023-06-16T00:14:41.121Z" agent="Mozilla/5.0 (Windows NT 10.0; Win64; x64) AppleWebKit/537.36 (KHTML, like Gecko) Chrome/114.0.0.0 Safari/537.36" version="21.2.9" etag="W936gicT2nrDacJLdS7g" type="github">
  <diagram name="Page-1" id="M46h-v1VHYYUo1osl_IP">
    <mxGraphModel>
      <root>
        <mxCell id="0" />
        <mxCell id="1" parent="0" />
      </root>
    </mxGraphModel>
  </diagram>
</mxfile>
